<?xml version="1.0" standalone="no"?><!DOCTYPE svg PUBLIC "-//W3C//DTD SVG 1.1//EN" "http://www.w3.org/Graphics/SVG/1.1/DTD/svg11.dtd"><svg t="1717768952822" class="icon" viewBox="0 0 1024 1024" version="1.1" xmlns="http://www.w3.org/2000/svg" p-id="1712" xmlns:xlink="http://www.w3.org/1999/xlink" width="200" height="200"><path d="M577.346666 577.130779m-368.10691 0a368.10691 368.10691 0 1 0 736.21382 0 368.10691 368.10691 0 1 0-736.21382 0Z" fill="#C1D3F4" p-id="1713"></path><path d="M511.199872 510.983985m-368.10691 0a368.10691 368.10691 0 1 0 736.213819 0 368.10691 368.10691 0 1 0-736.213819 0Z" fill="#FFD7E3" p-id="1714"></path><path d="M312.098021 305.598189a11.906423 11.906423 0 0 1-7.276147-2.315138 13.229359 13.229359 0 0 1-4.96101-12.237156l16.205965-95.251384-69.1234-66.146794A12.898625 12.898625 0 0 1 243.305355 115.75689a12.237157 12.237157 0 0 1 9.922019-8.268349l95.582118-13.890827L392.135642 6.945413a12.898625 12.898625 0 0 1 11.244955-6.945413 12.898625 12.898625 0 0 1 11.244955 6.945413l42.664682 86.652301 95.582118 13.890827a12.237157 12.237157 0 0 1 9.922019 8.268349 12.898625 12.898625 0 0 1-2.976606 12.898625l-69.454134 66.146794L507.892532 291.045895a13.229359 13.229359 0 0 1-4.96101 12.237156 13.560093 13.560093 0 0 1-13.229358 0l-86.321567-43.987618L318.051233 304.275253a12.898625 12.898625 0 0 1-5.953212 1.322936z m-29.766057-177.273408l55.894041 54.571105a12.237157 12.237157 0 0 1 3.638073 10.914221l-13.229358 76.730281 69.1234-36.380737a13.229359 13.229359 0 0 1 11.244955 0l69.1234 36.380737-13.229359-76.730281a12.237157 12.237157 0 0 1 3.638073-10.914221l55.894042-54.571105-77.061016-11.244955a12.567891 12.567891 0 0 1-9.591285-6.61468l-33.073397-70.115602-33.073397 70.115602a12.567891 12.567891 0 0 1-9.591285 6.61468zM201.632875 467.657835a10.914221 10.914221 0 0 1-5.622478 0l-53.909637-28.443121-54.240371 27.120185a12.898625 12.898625 0 0 1-12.898625 0 12.567891 12.567891 0 0 1-4.96101-12.237157l10.252753-60.193583L36.596623 350.578009A12.567891 12.567891 0 0 1 44.864973 330.733971l60.193582-8.929817L130.855805 264.587177a12.898625 12.898625 0 0 1 22.159176 0l27.120186 54.571105 60.193582 11.575689a12.237157 12.237157 0 0 1 6.945414 21.166974L203.617279 392.911958l10.252753 60.193582a11.906423 11.906423 0 0 1-4.96101 12.237157 11.244955 11.244955 0 0 1-7.276147 2.315138z m-59.532115-56.224775a15.544497 15.544497 0 0 1 5.622477 0l37.703673 19.844038L177.158561 390.927554a12.237157 12.237157 0 0 1 3.638074-10.914221l30.096791-29.766058-41.67248-5.953211a13.229359 13.229359 0 0 1-9.591286-6.945414l-17.5289-38.034406-18.851836 38.034406a13.229359 13.229359 0 0 1-9.260552 6.945414l-42.003214 5.953211 30.427525 29.766058a11.244955 11.244955 0 0 1 3.30734 10.914221l-6.945413 41.67248 37.372939-19.844038a19.18257 19.18257 0 0 1 5.953211-1.322936zM92.490664 850.31704a11.906423 11.906423 0 0 1-8.929817-3.638074L36.927357 800.045476a12.237157 12.237157 0 0 1 0-17.528901l46.63349-46.633489a12.237157 12.237157 0 0 1 17.528901 0l46.964223 46.633489a12.898625 12.898625 0 0 1 0 17.528901L101.089748 846.678966a11.244955 11.244955 0 0 1-8.599084 3.638074z m-29.435323-58.870647l29.435323 29.104589 29.10459-29.104589-29.10459-30.75826zM156.653055 1011.715217h-2.976606l-64.16239-16.205964a12.898625 12.898625 0 0 1-9.260552-15.213763l16.205965-64.16239a12.237157 12.237157 0 0 1 14.552295-8.929817l66.146794 15.87523a12.567891 12.567891 0 0 1 8.929817 15.213763l-16.205964 64.16239a11.906423 11.906423 0 0 1-13.229359 9.260551z m-49.279362-37.372938l40.349544 9.922019 9.92202-40.018811-40.018811-9.922019zM44.864973 677.673907a14.883029 14.883029 0 0 1-6.283946 0 13.229359 13.229359 0 0 1-5.622477-7.606882L11.791575 589.037202a12.567891 12.567891 0 0 1 8.929818-15.213762l79.376153-20.505506a13.890827 13.890827 0 0 1 9.591285 0 11.906423 11.906423 0 0 1 5.622477 7.606881l20.505507 79.376153a12.567891 12.567891 0 0 1-8.929818 15.213763l-79.376153 20.505506zM39.242495 595.321148l14.221561 55.563307 55.563307-14.221561-14.221561-55.563307zM584.292079 1021.96797a12.567891 12.567891 0 0 1-12.567891-12.56789V367.114708h-66.146794a187.856896 187.856896 0 0 0-187.526161 187.856895v454.428477a12.567891 12.567891 0 0 1-12.567891 12.56789H223.792051a12.567891 12.567891 0 0 1-13.560093-12.56789 12.237157 12.237157 0 0 1 12.567891-12.237157h68.792666V554.971603a212.661943 212.661943 0 0 1 212.331209-212.661943h80.368355a12.567891 12.567891 0 0 1 12.237157 12.237157v654.853263a12.567891 12.567891 0 0 1-12.237157 12.56789z" fill="#231815" p-id="1715"></path><path d="M998.040277 1021.96797a12.237157 12.237157 0 0 1-12.237157-12.56789V243.089469c0-17.859634-23.812846-33.073397-51.594499-33.073397h-286.415619c-27.781654 0-51.263766 15.213763-51.263766 33.073397v766.310611a12.567891 12.567891 0 1 1-24.805048 0V243.089469c0-33.073397 33.073397-57.878445 76.068814-57.878445h286.415619c42.664682 0 76.399547 25.466516 76.399547 57.878445v766.310611a12.567891 12.567891 0 0 1-12.567891 12.56789z" fill="#231815" p-id="1716"></path><path d="M584.292079 517.598665h-191.164235a12.567891 12.567891 0 1 1 0-24.805048h191.164235a12.567891 12.567891 0 0 1 0 24.805048zM584.292079 648.238583h-215.969283a11.906423 11.906423 0 0 1-12.237157-12.237157 12.237157 12.237157 0 0 1 12.237157-12.567891h215.969283a12.567891 12.567891 0 0 1 12.237157 12.567891 12.237157 12.237157 0 0 1-12.237157 12.237157zM584.292079 779.209236h-215.969283a12.237157 12.237157 0 0 1-12.237157-12.567891 11.906423 11.906423 0 0 1 12.237157-12.237157h215.969283a12.237157 12.237157 0 0 1 12.237157 12.237157 12.567891 12.567891 0 0 1-12.237157 12.567891zM948.760915 317.173878H633.571441a12.237157 12.237157 0 0 1-12.567891-12.237157 12.567891 12.567891 0 0 1 12.567891-12.567891h315.189474a12.567891 12.567891 0 0 1 12.567891 12.567891 12.237157 12.237157 0 0 1-12.567891 12.237157zM948.760915 496.100957h-70.115602a12.567891 12.567891 0 0 1-12.237156-12.567891 12.237157 12.237157 0 0 1 12.237156-12.237157h70.115602a12.237157 12.237157 0 0 1 12.567891 12.237157 12.567891 12.567891 0 0 1-12.567891 12.567891zM807.53751 496.100957H633.571441a12.567891 12.567891 0 0 1-12.567891-12.567891 12.237157 12.237157 0 0 1 12.567891-12.237157h173.966069a12.237157 12.237157 0 0 1 12.237157 12.237157 12.567891 12.567891 0 0 1-12.237157 12.567891zM948.760915 673.374365H633.571441a12.567891 12.567891 0 1 1 0-24.805048h315.189474a12.567891 12.567891 0 1 1 0 24.805048zM948.760915 851.309241H633.571441a12.567891 12.567891 0 1 1 0-24.805047h315.189474a12.567891 12.567891 0 1 1 0 24.805047z" fill="#231815" p-id="1717"></path></svg>